<?xml version="1.0" encoding="UTF-8"?>
<svg id="_Шар_1" data-name="Шар 1" xmlns="http://www.w3.org/2000/svg" viewBox="0 0 130.99 121.61">
  <defs>
    <style>
      .cls-1 {
        fill: #fff;
        stroke-width: 0px;
      }
    </style>
  </defs>
  <path class="cls-1" d="m23.9,56.5c1.37-.13,3.01.42,4.13,1.19,1.5,1.03,2.63,2.69,2.92,4.49.3,1.83-.08,3.77-1.22,5.26-1.25,1.65-2.84,2.57-4.88,2.86-1.77,0-3.28-.27-4.74-1.33-1.42-1.03-2.46-2.65-2.71-4.4-.27-1.89.13-3.78,1.28-5.31,1.33-1.75,3.1-2.47,5.22-2.77Z"/>
  <path class="cls-1" d="m57.49.52c4.25-1.09,8.81-.48,12.59,1.77,3.62,2.16,6.13,5.81,7.14,9.87.68,2.74.48,5.65-.28,8.35-.52-.19-1.09-.24-1.64-.33l-2.13-.46c-4.32-1.05-8.42-3.15-11.4-6.5-2.5-2.81-4.3-6.89-4.43-10.68-.02-.66.11-1.36.15-2.03Z"/>
  <path class="cls-1" d="m76.94,20.53l-.64,1.48c-1.88,3.94-5.11,7.01-9.25,8.45-3.91,1.36-8.55,1.23-12.3-.61-3.85-1.89-6.84-5.2-8.2-9.27-1.32-3.96-.96-8.37.9-12.09,2.09-4.17,5.74-6.53,10.05-7.97-.04.66-.17,1.37-.15,2.03.13,3.79,1.94,7.87,4.43,10.68,2.98,3.35,7.08,5.46,11.4,6.5l2.13.46c.54.09,1.12.14,1.64.33Z"/>
  <path class="cls-1" d="m15.24,78.49c1.88-.08,3.79.38,5.55,1.01,2.41.86,4.68,2.49,6.35,4.42,2.07,2.38,3.47,5.38,3.98,8.49.32,1.91.25,3.78.25,5.72,0,2.79-.02,5.65.2,8.43.43,5.2,1.67,10.18,3.92,14.89-4.54,0-8.99-.52-13.32-1.94-4.87-1.86-9.44-4.19-13.35-7.68C4.6,108.03.38,102.21.05,96.34c-.26-4.51.55-9.05,3.66-12.51,3.08-3.42,6.99-5.12,11.54-5.35Z"/>
  <path class="cls-1" d="m40.56,120.81l-2.96.47c-1.52-5.21-1.47-10.76-.54-16.08,1.11-6.31,3-12.3,2.98-18.78-.01-4.33-1.02-8.6-2.2-12.74-.4-1.39-.92-2.75-1.25-4.16-.82-3.47-1.19-7.05-1.06-10.61.15-4.24,1.72-8.31,3.51-12.11l-1.51-2.57c-1.69-2.78-4.35-4.54-7.54-5.14-1.4-.26-2.84-.34-4.22-.69-1.5-.38-2.77-1.26-3.55-2.61-.76-1.32-.9-2.81-.5-4.25.39-1.4,1.36-2.69,2.64-3.39,2.05-1.1,4.24-.77,6.38-.15,4.02,1.16,7.66,3.61,10.09,7.04,1.24,1.76,2.23,3.73,3.27,5.62l.07-.09c3.72-4.28,9.62-7.05,15.25-7.46,5.24-.39,10.38.76,14.88,3.5,1.59.97,3.01,2.12,4.42,3.33,2.82-4.87,6.35-9.41,11.85-11.39,2.45-.88,5.35-1.31,7.78-.14,1.43.69,2.52,1.96,3.01,3.47.47,1.46.35,2.96-.37,4.32-2.03,3.86-6.22,2.55-9.64,3.64-3.49,1.1-5.63,3.5-7.29,6.68l2.49,5.52c.91,0,1.83-.05,2.73.08-1.81.06-3.57,0-5.38.19-10.47,1.06-19.68,5.42-26.91,13.1-4.69,4.98-8.34,11.18-10.04,17.82-1.01,3.95-1.36,8.01-1.22,12.08.07,2.04.35,4.16.8,6.14.23,1.04.63,2.13.76,3.18,1.25,3.78,2.86,8.16,5.62,11.11-3.7,2.43-8.08,4.04-12.38,5.05Z"/>
  <path class="cls-1" d="m47.31,104.64c1.25,3.78,2.86,8.16,5.62,11.11-3.7,2.43-8.08,4.04-12.38,5.05l-.15-.11c-.2-1.01,1.23-2.73,1.72-3.63,1.39-2.58,2.51-5.38,3.54-8.12.52-1.39.86-3.05,1.65-4.3Z"/>
  <path class="cls-1" d="m89.3,52.13c10.83.33,21.88,5.83,29.24,13.69,6.96,7.43,11.38,17.01,12.26,27.19.32,3.67.14,7.45.14,11.14v17.47s-27.74-.06-27.74-.06l.05-20.61v-6.67c.02-2.11.1-4.27-.39-6.34-.66-2.79-2.12-5.4-4.15-7.43-3.12-3.12-7.29-4.87-11.7-4.84-4.48.03-8.65,1.87-11.76,5.07-2.23,2.29-3.9,5.1-4.64,8.23-.53,2.26-.81,4.55-1.54,6.76-2.31,7.08-7.09,13.4-13.01,17.87-.97.73-2.04,1.62-3.12,2.15-2.76-2.95-4.37-7.33-5.62-11.11-.14-1.05-.53-2.14-.76-3.18-.45-1.99-.73-4.1-.8-6.14-.15-4.07.2-8.13,1.22-12.08,1.71-6.65,5.36-12.84,10.04-17.82,7.23-7.68,16.44-12.04,26.91-13.1,1.81-.18,3.57-.13,5.38-.19Z"/>
</svg>